<svg width="123" height="123" viewBox="0 0 123 123" fill="none" xmlns="http://www.w3.org/2000/svg">
<g clip-path="url(#clip0_154_384)">
<rect width="123" height="123" rx="61" fill="#02152C"/>
<rect x="5" y="6" width="112" height="112" rx="56" fill="#CBD395"/>
<rect x="12.5" y="13.5" width="97" height="97" rx="48.5" fill="#02152C"/>
<rect x="12.5" y="13.5" width="97" height="97" rx="48.5" stroke="#6D6D32" stroke-width="5"/>
<rect x="17.5" y="18.5" width="87" height="87" rx="43.5" fill="#918739"/>
<rect x="17.5" y="18.5" width="87" height="87" rx="43.5" stroke="#02152C" stroke-width="5"/>
</g>
<g clip-path="url(#clip1_154_384)">
<rect y="0.5" width="123" height="123" rx="61" fill="#02152C"/>
<rect x="5" y="6.5" width="112" height="112" rx="56" fill="#6D6D32"/>
<rect x="12.5" y="14" width="97" height="97" rx="48.5" fill="#CBD395"/>
<rect x="12.5" y="14" width="97" height="97" rx="48.5" stroke="#CBD395" stroke-width="5"/>
<rect x="17.5" y="19" width="87" height="87" rx="43.5" fill="#918739"/>
<rect x="17.5" y="19" width="87" height="87" rx="43.5" stroke="#02152C" stroke-width="5"/>
</g>
<path d="M56.2229 14.559C57.6748 9.86064 64.3252 9.86065 65.7771 14.559L73.367 39.1203C74.0144 41.2154 75.9513 42.6441 78.1441 42.6441H103.219C108.001 42.6441 110.054 48.714 106.254 51.6174L85.5436 67.4386C83.8784 68.7107 83.1831 70.8861 83.8018 72.8881L91.6094 98.1541C93.0467 102.805 87.6654 106.559 83.797 103.604L64.0353 88.507C62.2433 87.138 59.7567 87.138 57.9647 88.507L38.203 103.604C34.3346 106.559 28.9533 102.805 30.3906 98.1541L38.1982 72.8881C38.8169 70.8861 38.1216 68.7106 36.4564 67.4386L15.7462 51.6174C11.9456 48.714 13.9988 42.6441 18.7815 42.6441H43.8559C46.0487 42.6441 47.9856 41.2154 48.633 39.1203L56.2229 14.559Z" fill="#78F6FF"/>
<mask id="mask0_154_384" style="mask-type:alpha" maskUnits="userSpaceOnUse" x="13" y="11" width="96" height="94">
<path d="M56.2229 14.559C57.6748 9.86064 64.3252 9.86065 65.7771 14.559L73.367 39.1203C74.0144 41.2154 75.9513 42.6441 78.1441 42.6441H103.219C108.001 42.6441 110.054 48.714 106.254 51.6174L85.5436 67.4386C83.8784 68.7107 83.1831 70.8861 83.8018 72.8881L91.6094 98.1541C93.0467 102.805 87.6654 106.559 83.797 103.604L64.0353 88.507C62.2433 87.138 59.7567 87.138 57.9647 88.507L38.203 103.604C34.3346 106.559 28.9533 102.805 30.3906 98.1541L38.1982 72.8881C38.8169 70.8861 38.1216 68.7106 36.4564 67.4386L15.7462 51.6174C11.9456 48.714 13.9988 42.6441 18.7815 42.6441H43.8559C46.0487 42.6441 47.9856 41.2154 48.633 39.1203L56.2229 14.559Z" fill="#5BE5F8"/>
</mask>
<g mask="url(#mask0_154_384)">
<path d="M100.688 70.1L193.944 42.0509L188.183 22.8984L60.5056 61.3008L1.36499 44.8329L-4 64.1L17.5479 70.1H-4V145.1H144V70.1H100.688Z" fill="#5BE5F8"/>
</g>
<mask id="mask1_154_384" style="mask-type:alpha" maskUnits="userSpaceOnUse" x="13" y="11" width="96" height="94">
<path d="M56.2229 14.559C57.6748 9.86064 64.3252 9.86065 65.7771 14.559L73.367 39.1203C74.0144 41.2154 75.9513 42.6441 78.1441 42.6441H103.219C108.001 42.6441 110.054 48.714 106.254 51.6174L85.5436 67.4386C83.8784 68.7107 83.1831 70.8861 83.8018 72.8881L91.6094 98.1541C93.0467 102.805 87.6654 106.559 83.797 103.604L64.0353 88.507C62.2433 87.138 59.7567 87.138 57.9647 88.507L38.203 103.604C34.3346 106.559 28.9533 102.805 30.3906 98.1541L38.1982 72.8881C38.8169 70.8861 38.1216 68.7106 36.4564 67.4386L15.7462 51.6174C11.9456 48.714 13.9988 42.6441 18.7815 42.6441H43.8559C46.0487 42.6441 47.9856 41.2154 48.633 39.1203L56.2229 14.559Z" fill="#0699B0"/>
</mask>
<g mask="url(#mask1_154_384)">
<path d="M38.0396 55.1136L51 65.0507L36.7068 70.4467L-32.8479 81.4648L-5.08301 41.1L38.0396 55.1136Z" fill="#0699B0"/>
<path d="M70 65.0507L82.9624 55.1138L126.092 41.1L153.861 81.4647L84.2939 70.4463L70 65.0507Z" fill="#0699B0"/>
<path d="M60.4846 64.1L104.969 131.1H15.9998L60.4846 64.1Z" fill="#0699B0"/>
</g>
<path d="M59.0892 15.4448C59.6699 13.5654 62.3301 13.5654 62.9108 15.4448L70.5007 40.006C71.5365 43.3581 74.6356 45.6441 78.1441 45.6441H103.219C105.132 45.6441 105.953 48.072 104.433 49.2334L83.7224 65.0546C81.0582 67.0899 79.9457 70.5706 80.9355 73.7738L88.7431 99.0398C89.318 100.9 87.1656 102.402 85.6182 101.22L65.8565 86.123C62.9893 83.9327 59.0107 83.9327 56.1435 86.123L36.3818 101.22C34.8345 102.402 32.682 100.9 33.2569 99.0398L41.0645 73.7738C42.0543 70.5706 40.9418 67.0899 38.2776 65.0546L17.5673 49.2334C16.0471 48.0721 16.8684 45.6441 18.7815 45.6441H43.8559C47.3644 45.6441 50.4635 43.3581 51.4993 40.006L59.0892 15.4448Z" stroke="#00152C" stroke-width="6" stroke-miterlimit="1.42723" stroke-linecap="round" stroke-linejoin="round"/>
<defs>
<clipPath id="clip0_154_384">
<rect width="123" height="61.5" fill="white"/>
</clipPath>
<clipPath id="clip1_154_384">
<rect width="123" height="61.5" fill="white" transform="translate(0 61.5)"/>
</clipPath>
</defs>
</svg>
